<?xml version="1.0" encoding="utf-8" ?>	<!-- Generator: Assembly 2.4 - http://assemblyapp.co -->	<svg version="1.1" xmlns="http://www.w3.org/2000/svg" xmlns:xlink="http://www.w3.org/1999/xlink" width="4096.00" height="4096.00" viewBox="0 0 4096.0 4096.0">		<g id="document" transform="scale(1.0 1.0) translate(2048.0 2048.0)">			<path d="M1820.19,501.102 C1820.19,92.4907 1828.07,-666.676 1366.12,-1272.36 C946.005,-1823.21 410.364,-1898.21 -9.73598,-1898.21 C-388,-1898.21 -948.437,-1796.79 -1343.63,-1272.36 C-1882.35,-557.473 -1817.78,56.3037 -1817.78,501.102 C-1817.78,918.759 -1576.51,1355.74 -1189.18,1611.69 C-860.578,1828.83 -419.377,1898.21 -9.73598,1898.21 C413.85,1898.21 883.162,1842.18 1221.97,1611.69 C1597.03,1356.53 1820.19,906.697 1820.19,501.102 Z " fill="#cd3c15" fill-opacity="1.00" />			<path d="M-1490.91,-202.262 C-1558.27,979.416 -469.828,418.358 -25.2237,474.265 C419.381,530.171 1493.9,950.019 1493.9,-202.262 C1493.9,-1354.54 457.45,-1515.85 -25.2237,-1515.85 C-507.898,-1515.85 -1423.55,-1383.94 -1490.91,-202.262 Z " fill="#fce8cf" fill-opacity="1.00" />			<path d="M1155.9,-283.337 C1139.99,-288.794 984.657,-328.306 905.69,-283.337 C819.475,-234.24 799.627,-120.844 853.059,-120.844 C1166.8,-120.844 1050.64,122.564 963.843,196.466 C661.393,406.972 344.726,14.8959 315.602,29.0732 C286.479,43.2505 456.76,306.822 621.96,362.893 C799.694,424.131 993.897,427.19 1167.07,290.29 C1367.55,132.955 1326.23,-236.288 1155.9,-283.337 Z " fill="#000000" fill-opacity="1.00" />			<path d="M-1172.7,-272.745 C-1156.78,-278.203 -1001.45,-317.715 -922.485,-272.745 C-836.27,-223.648 -816.422,-110.253 -869.853,-110.253 C-1183.59,-110.253 -1067.44,133.156 -980.637,207.057 C-678.187,417.563 -361.52,25.4872 -332.397,39.6645 C-303.273,53.8418 -473.554,317.413 -638.755,373.484 C-816.489,434.722 -1010.69,437.782 -1183.86,300.881 C-1384.35,143.546 -1343.03,-225.697 -1172.7,-272.745 Z " fill="#000000" fill-opacity="1.00" />			<path d="M-258.544,-500.763 C-258.544,-681.919 -405.4,-828.775 -586.556,-828.775 C-767.712,-828.775 -914.568,-681.919 -914.568,-500.763 C-914.568,-319.607 -767.712,-172.751 -586.556,-172.751 C-405.4,-172.751 -258.544,-319.607 -258.544,-500.763 Z " fill="#f9bd04" fill-opacity="1.00" />			<path d="M-329.122,-500.763 C-329.122,-642.94 -444.379,-758.197 -586.556,-758.197 C-728.733,-758.197 -843.99,-642.94 -843.99,-500.763 C-843.99,-358.586 -728.733,-243.329 -586.556,-243.329 C-444.379,-243.329 -329.122,-358.586 -329.122,-500.763 Z " fill="#ffffff" fill-opacity="1.00" />			<path d="M-405.914,-500.763 C-405.914,-600.528 -486.79,-681.404 -586.556,-681.404 C-686.321,-681.404 -767.197,-600.528 -767.197,-500.763 C-767.197,-400.997 -686.321,-320.121 -586.556,-320.121 C-486.79,-320.121 -405.914,-400.997 -405.914,-500.763 Z " fill="#000000" fill-opacity="1.00" />			<path d="M302.492,-928.598 C392.018,-899.045 581.427,-1147.4 808.701,-1114.09 C1035.97,-1080.79 1060.02,-743.885 1077.68,-738.056 C1095.34,-732.227 1044.59,-1154.33 806.256,-1220.05 C567.924,-1285.77 441.843,-1243.16 326.796,-1176.6 C211.749,-1110.04 214.573,-959.184 302.492,-928.598 Z " fill="#000000" fill-opacity="1.00" />			<path d="M241.75,-517.596 C241.75,-698.752 388.606,-845.608 569.762,-845.608 C750.917,-845.608 897.773,-698.752 897.773,-517.596 C897.773,-336.44 750.917,-189.584 569.762,-189.584 C388.606,-189.584 241.75,-336.44 241.75,-517.596 Z " fill="#f9bd04" fill-opacity="1.00" />			<path d="M312.328,-517.596 C312.328,-659.773 427.585,-775.03 569.762,-775.03 C711.938,-775.03 827.195,-659.773 827.195,-517.596 C827.195,-375.419 711.938,-260.162 569.762,-260.162 C427.585,-260.162 312.328,-375.419 312.328,-517.596 Z " fill="#ffffff" fill-opacity="1.00" />			<path d="M389.12,-517.596 C389.12,-617.362 469.996,-698.237 569.762,-698.237 C669.527,-698.237 750.403,-617.362 750.403,-517.596 C750.403,-417.83 669.527,-336.954 569.762,-336.954 C469.996,-336.954 389.12,-417.83 389.12,-517.596 Z " fill="#000000" fill-opacity="1.00" />			<path d="M-318.196,-921.501 C-407.722,-891.947 -597.132,-1140.3 -824.405,-1107 C-1051.68,-1073.69 -1075.72,-736.788 -1093.38,-730.959 C-1111.04,-725.129 -1060.29,-1147.23 -821.96,-1212.95 C-583.628,-1278.67 -457.547,-1236.07 -342.5,-1169.51 C-227.453,-1102.95 -230.278,-952.087 -318.196,-921.501 Z " fill="#000000" fill-opacity="1.00" />			<path d="M730.232,1261.62 C809.112,1050.21 846.198,876.277 769.737,859.414 C693.277,842.552 597.952,999.313 548.923,1221.63 C499.893,1443.95 495.636,1591.87 527.907,1605.94 C560.179,1620.01 651.352,1473.02 730.232,1261.62 Z " fill="#fbbc02" fill-opacity="1.00" />			<path d="M-786.884,1175.43 C-841.139,956.415 -858.146,779.383 -780.261,771.351 C-702.377,763.319 -625.552,929.929 -602.198,1156.39 C-578.843,1382.85 -591.485,1530.29 -625.15,1540.59 C-658.816,1550.89 -732.63,1394.45 -786.884,1175.43 Z " fill="#fbbc02" fill-opacity="1.00" />			<path d="M-344.795,1247.13 C-367.25,1022.61 -358.828,844.966 -280.594,848.127 C-202.36,851.288 -150.09,1027.15 -159.281,1254.63 C-168.471,1482.1 -202.018,1626.24 -236.808,1631.63 C-271.598,1637.01 -322.341,1471.65 -344.795,1247.13 Z " fill="#fbbc02" fill-opacity="1.00" />			<path d="M302.99,1273.31 C343.485,1051.33 349.421,873.582 271.188,870.421 C192.954,867.26 126.666,1038.34 117.476,1265.81 C108.285,1493.29 130.094,1639.66 164.336,1647.83 C198.578,1656.01 262.496,1495.28 302.99,1273.31 Z " fill="#fbbc02" fill-opacity="1.00" />			<path d="M-1275.17,1052.47 C-1358.27,842.695 -1398.83,669.535 -1322.72,651.144 C-1246.61,632.753 -1148.17,787.573 -1094.69,1008.86 C-1041.22,1230.16 -1034,1377.97 -1065.98,1392.68 C-1097.97,1407.39 -1192.07,1262.25 -1275.17,1052.47 Z " fill="#fbbc02" fill-opacity="1.00" />			<path d="M1239.01,1138.82 C1322.11,929.039 1362.68,755.879 1286.57,737.488 C1210.46,719.097 1112.02,873.917 1058.54,1095.21 C1005.07,1316.5 997.848,1464.31 1029.83,1479.02 C1061.81,1493.73 1155.91,1348.6 1239.01,1138.82 Z " fill="#fbbc02" fill-opacity="1.00" />			<path d="M-9.09495e-13,202.162 C-126.925,202.162 -226.652,134.472 -226.652,11.1739 L-226.652,128.945 C-226.652,255.87 -123.299,295.181 -9.09495e-13,295.181 C122.845,295.181 226.652,252.244 226.652,128.945 L226.652,11.1739 C226.652,134.019 127.378,202.162 -9.09495e-13,202.162 Z " fill="#000000" fill-opacity="1.00" />			<path d="M1390.28,-221.084 C1363.4,-202.816 1328.68,-243.795 1293.36,-288.54 C1227.11,-371.852 1156.05,-380.592 1156.83,-394.901 C1157.82,-411.583 1218.5,-412.038 1252.02,-402.688 C1285.54,-393.337 1349.96,-384.426 1394.72,-332.151 C1439.48,-279.876 1417.15,-239.352 1390.28,-221.084 Z " fill="#000000" fill-opacity="1.00" />			<path d="M-1389.09,-214.661 C-1362.22,-196.393 -1327.49,-237.371 -1292.17,-282.116 C-1225.92,-365.429 -1154.87,-374.168 -1155.64,-388.477 C-1156.64,-405.159 -1217.32,-405.615 -1250.83,-396.264 C-1284.35,-386.913 -1348.77,-378.002 -1393.53,-325.727 C-1438.3,-273.452 -1415.97,-232.929 -1389.09,-214.661 Z " fill="#000000" fill-opacity="1.00" />			<path d="M265.563,-102.481 C257.74,-80.9654 221.007,-90.06 182.383,-101.062 C110.19,-121.348 65.9931,-97.0478 60.5375,-105.543 C54.2288,-115.483 88.7067,-140.758 111.709,-149.233 C134.712,-157.708 175.188,-179.175 222.312,-167.764 C269.435,-156.352 273.386,-123.997 265.563,-102.481 Z " fill="#cd3c15" fill-opacity="1.00" />			<path d="M-251.811,-105.693 C-243.988,-84.1773 -207.255,-93.2718 -168.632,-104.274 C-96.439,-124.56 -52.2418,-100.26 -46.7862,-108.754 C-40.4775,-118.695 -74.9554,-143.97 -97.9579,-152.445 C-120.96,-160.92 -161.437,-182.387 -208.56,-170.976 C-255.683,-159.564 -259.634,-127.209 -251.811,-105.693 Z " fill="#cd3c15" fill-opacity="1.00" />			<path d="M-446.109,429.372 C-469.291,406.599 -435.914,364.513 -398.959,321.11 C-330.247,239.817 -335.605,168.426 -321.421,166.383 C-304.868,164.089 -292.528,223.501 -295.128,258.2 C-297.728,292.899 -293.839,357.816 -336.327,411.957 C-378.814,466.097 -422.928,452.146 -446.109,429.372 Z " fill="#000000" fill-opacity="1.00" />			<path d="M431.788,432.369 C454.97,409.596 421.593,367.51 384.638,324.107 C315.926,242.814 321.284,171.423 307.1,169.38 C290.547,167.086 278.207,226.498 280.807,261.197 C283.407,295.896 279.518,360.813 322.006,414.953 C364.493,469.094 408.607,455.143 431.788,432.369 Z " fill="#000000" fill-opacity="1.00" />		</g>	</svg>